HIERARCHY
ROOT Hips
{
  OFFSET -213.699 104.721 0.752556
  CHANNELS 6 Xposition Yposition Zposition Zrotation Xrotation Yrotation
  JOINT RightUpLeg
  {
    OFFSET -8.9458 -8.66707 0.101652
    CHANNELS 3 Zrotation Xrotation Yrotation
    JOINT RightLeg
    {
      OFFSET 0 -44.4227 1.3727
      CHANNELS 3 Zrotation Xrotation Yrotation
      JOINT RightFoot
      {
        OFFSET 0.253549 -42.0924 -1.46059
        CHANNELS 3 Zrotation Xrotation Yrotation
        JOINT RightToes
        {
          OFFSET 0.04 -4.41509 8.4991
          CHANNELS 3 Zrotation Xrotation Yrotation
          End Site
          {
            OFFSET -0.08 -0.137448 9.77979
          }
        }
      }
    }
  }
  JOINT Spine
  {
    OFFSET 0 11.8905 0
    CHANNELS 3 Zrotation Xrotation Yrotation
    JOINT Spine1
    {
      OFFSET 0 25.6574 0.127663
      CHANNELS 3 Zrotation Xrotation Yrotation
      JOINT HEad
      {
        OFFSET 0 8.73416 0.011341
        CHANNELS 3 Zrotation Xrotation Yrotation
        End Site
        {
          OFFSET -0.29 12.7742 2.51395
        }
      }
      JOINT LeftShoulder1
      {
        OFFSET 8.99 -0.362252 -0.22
        CHANNELS 3 Zrotation Xrotation Yrotation
        JOINT LeftArm
        {
          OFFSET 10.2827 -0.00337999 0.322123
          CHANNELS 3 Zrotation Xrotation Yrotation
          JOINT LeftForeArm
          {
            OFFSET 26.2597 0.099144 -1.42434
            CHANNELS 3 Zrotation Xrotation Yrotation
            JOINT LeftHand
            {
              OFFSET 22.0902 0.085362 1.02216
              CHANNELS 3 Zrotation Xrotation Yrotation
              End Site
              {
                OFFSET 13.419 -0.6 1.50291
              }
            }
          }
        }
      }
      JOINT RightShoulder
      {
        OFFSET -8.99 -0.362252 -0.22
        CHANNELS 3 Zrotation Xrotation Yrotation
        JOINT RightArm
        {
          OFFSET -10.2827 -0.00338 0.322123
          CHANNELS 3 Zrotation Xrotation Yrotation
          JOINT RightForeArm
          {
            OFFSET -26.364 0.099144 -1.42434
            CHANNELS 3 Zrotation Xrotation Yrotation
            JOINT RightHand
            {
              OFFSET -22.0324 0.085362 1.02216
              CHANNELS 3 Zrotation Xrotation Yrotation
              End Site
              {
                OFFSET -13.3284 -0.6 1.50291
              }
            }
          }
        }
      }
    }
  }
  JOINT LeftUpLeg
  {
    OFFSET 8.9458 -8.66707 0.101652
    CHANNELS 3 Zrotation Xrotation Yrotation
    JOINT LeftLeg
    {
      OFFSET 0 -44.4227 1.3727
      CHANNELS 3 Zrotation Xrotation Yrotation
      JOINT LeftFoot
      {
        OFFSET -0.253549 -42.0924 -1.46059
        CHANNELS 3 Zrotation Xrotation Yrotation
        JOINT LeftToes
        {
          OFFSET -0.04 -4.41509 8.4991
          CHANNELS 3 Zrotation Xrotation Yrotation
          End Site
          {
            OFFSET 0.08 -0.047448 9.77979
          }
        }
      }
    }
  }
}
MOTION
Frames:	12
Frame Time:	0.0333333
15.4647 144.698 112.303 1.40126 3.31327 176.341 6.77655 -7.9714 11.8224 -1.15365 32.3301 -19.1704 -18.99 -16.4577 -1.74201 0.0462048 0.000530889 0.662642 -7.09913 1.47827 -1.84455 4.04236 8.55155 -2.81907 8.11037 6.44891 -57.5588 -31.6238 -3.44695 12.6493 -79.1383 -47.1852 -37.4647 -172.944 62.3146 177.759 9.412 8.94959 -7.36919 31.8214 -1.14882 -7.11245 54.5256 -20.9692 20.7252 18.3302 70.7715 -4.44702 -2.35416 9.80516 1.30806 0.0853711 1.94305 1.69443 1.20911 6.293 9.14143 -16.8062 0.417543 1.1749 -1.3105e-009 8.75234e-006 -1.47132e-008 
15.4527 144.703 112.29 1.39956 3.32455 176.31 6.7602 -7.92922 11.845 -1.1523 32.2852 -19.1519 -18.9904 -16.4531 -1.74197 0.0462048 0.000530889 0.662642 -7.07275 1.48536 -1.85883 3.98702 8.54189 -2.82026 8.15459 6.4893 -57.4505 -31.5894 -3.44695 12.6493 -79.0589 -46.9981 -37.431 -172.955 62.4068 177.595 9.41866 8.95245 -7.35277 31.8099 -1.14878 -7.12885 54.576 -21.0025 20.7533 18.56 70.9234 -4.70206 -2.39866 9.80539 1.24614 0.0775916 1.88862 1.70227 1.19718 6.43528 9.04722 -16.2358 0.304742 1.11876 -1.3105e-009 8.75234e-006 -1.47132e-008 
15.4378 144.712 112.266 1.40033 3.33933 176.224 6.74517 -7.87249 11.8866 -1.15018 32.2287 -19.1183 -19.0379 -16.4378 -1.74183 0.0462048 0.000530889 0.662642 -7.05289 1.49362 -1.85988 3.94875 8.50552 -2.81754 8.26204 6.63509 -57.3466 -31.5794 -3.44697 12.648 -78.7051 -46.5238 -37.226 -172.956 62.8098 177.057 9.36227 8.96687 -7.22859 31.7487 -1.14878 -7.12877 54.5706 -20.9452 20.7445 18.7661 70.9438 -4.89944 -2.44125 9.80582 1.12372 0.0717396 1.80707 1.71617 1.17707 6.66021 8.90932 -15.3625 0.117511 1.03276 -1.3105e-009 8.75234e-006 -1.47132e-008 
15.433 144.714 112.244 1.3999 3.34361 176.118 6.75087 -7.85285 11.9624 -1.14972 32.2262 -19.1083 -19.0876 -16.4299 -1.74176 0.0462048 0.000530889 0.662642 -7.0612 1.47877 -1.83314 3.97177 8.47298 -2.79753 8.36268 6.85824 -57.3168 -31.5815 -3.43253 12.6099 -78.2916 -46.0404 -36.898 -172.939 63.2464 176.447 9.30712 8.98228 -7.09997 31.7007 -1.15014 -7.12199 54.5089 -20.9313 20.7205 18.8456 70.8819 -4.97641 -2.42429 9.80593 1.08966 0.0734977 1.77307 1.73915 1.15257 6.78344 8.88103 -14.9508 0.00406972 0.990183 -1.3105e-009 8.75234e-006 -1.47132e-008 
15.438 144.708 112.236 1.37949 3.3212 176.075 6.75414 -7.90001 12.0337 -1.15152 32.2879 -19.1339 -19.0665 -16.4408 -1.74186 0.0462048 0.000530889 0.662642 -7.09994 1.43769 -1.81482 3.99627 8.47534 -2.78078 8.41534 7.09069 -57.2246 -31.4936 -3.36713 12.4576 -78.1933 -45.8157 -36.6482 -172.939 63.3836 176.184 9.35943 8.96782 -7.2196 31.7529 -1.15752 -7.13877 54.4407 -21.0543 20.7331 18.9133 70.9584 -5.08233 -2.39762 9.80561 1.18557 0.0667555 1.75501 1.75632 1.12164 6.79422 8.92975 -15.0095 -0.00578166 0.993008 -1.3105e-009 8.75234e-006 -1.47132e-008 
15.4454 144.698 112.25 1.32517 3.26782 176.127 6.71958 -8.0134 12.0328 -1.15403 32.3839 -19.1662 -18.9983 -16.4678 -1.7421 0.0462048 0.000530889 0.662642 -7.17869 1.39941 -1.82982 3.97258 8.51578 -2.78494 8.49552 7.28499 -57.0661 -31.2972 -3.26272 12.2262 -78.4044 -45.7305 -36.5695 -172.928 63.4383 176.151 9.44997 8.93656 -7.50893 31.8547 -1.16274 -7.14283 54.343 -21.0919 20.7388 18.8503 71.0103 -5.01403 -2.44627 9.8053 1.2704 0.0259669 1.68536 1.73145 1.10478 6.78548 8.93341 -15.0975 0.0166326 1.00163 -1.3105e-009 8.75234e-006 -1.47132e-008 
15.4485 144.69 112.28 1.26033 3.21058 176.2 6.66177 -8.13581 11.9875 -1.15578 32.4611 -19.1852 -18.9713 -16.492 -1.74232 0.0462048 0.000530889 0.662642 -7.26088 1.41084 -1.85105 3.91209 8.56706 -2.79105 8.69541 7.41529 -57.0661 -31.1203 -3.18111 12.049 -78.6071 -45.4978 -36.5953 -172.867 63.7361 175.963 9.42516 8.9319 -7.60953 31.8615 -1.13396 -7.06629 54.2823 -20.9829 20.6907 18.5327 70.899 -4.62952 -2.53124 9.8054 1.2438 -0.0420944 1.59538 1.66453 1.1212 6.77461 8.90331 -15.0457 0.0272236 1.00092 -1.3105e-009 8.75234e-006 -1.47132e-008 
15.4463 144.685 112.314 1.22811 3.17387 176.215 6.63755 -8.21181 11.9992 -1.15698 32.4845 -19.2103 -18.9955 -16.4925 -1.74184 0.0462048 0.000530889 0.662642 -7.26491 1.49061 -1.84539 3.83781 8.58615 -2.77227 8.93055 7.47642 -57.2892 -31.0834 -3.17035 12.0284 -78.6943 -45.1454 -36.6902 -172.822 63.9931 175.698 9.31123 8.95429 -7.47894 31.729 -1.07394 -6.92 54.4378 -21.0847 20.6509 18.204 70.9697 -4.32142 -2.51402 9.80556 1.19995 -0.0887524 1.5485 1.61309 1.14876 6.73291 8.9322 -15.0226 0.0450647 1.00467 -1.3105e-009 8.75234e-006 -1.47132e-008 
15.4427 144.686 112.352 1.24231 3.13188 176.187 6.66928 -8.27194 12.0779 -1.15805 32.4662 -19.2459 -19.0013 -16.4626 -1.73731 0.0462048 0.000530889 0.662642 -7.16834 1.59301 -1.82213 3.76873 8.55228 -2.73786 8.98186 7.51977 -57.45 -31.1658 -3.21702 12.1345 -78.8398 -44.9322 -36.8899 -172.892 63.7488 175.74 9.28414 8.95966 -7.44657 31.5599 -1.02116 -6.79518 54.7835 -21.5291 20.695 18.1319 71.4419 -4.41884 -2.376 9.8054 1.24381 -0.0756063 1.49919 1.61829 1.15038 6.70124 8.99806 -15.0821 0.0741281 1.00942 -1.3105e-009 8.75234e-006 -1.47132e-008 
15.4407 144.691 112.4 1.27294 3.04559 176.16 6.71543 -8.39032 12.1277 -1.15787 32.4525 -19.2451 -18.9802 -16.416 -1.72721 0.0462048 0.000530889 0.662642 -7.05689 1.65973 -1.80371 3.74453 8.49221 -2.71611 8.78652 7.63076 -57.3217 -31.2729 -3.27093 12.2538 -79.0669 -44.8978 -37.1305 -173.001 63.2637 176.004 9.38203 8.93739 -7.60125 31.4468 -0.99905 -6.74612 55.0277 -21.8662 20.7927 18.1678 71.8492 -4.59579 -2.27101 9.80517 1.30552 -0.0249483 1.3693 1.64858 1.12991 6.72504 9.02279 -15.1284 0.090079 1.013 -1.3105e-009 8.75234e-006 -1.47132e-008 
15.44 144.697 112.452 1.28918 2.94126 176.114 6.73264 -8.54945 12.1082 -1.15524 32.4617 -19.1703 -19.0014 -16.3724 -1.72108 0.0462048 0.000530889 0.662642 -7.00306 1.7121 -1.78914 3.77085 8.43845 -2.70978 8.57275 7.82604 -57.0574 -31.354 -3.30121 12.3155 -79.1492 -44.8556 -37.2447 -173.016 63.1891 176.049 9.45086 8.92659 -7.64227 31.3827 -0.993826 -6.73768 55.0261 -21.7862 20.8789 18.0451 71.7503 -4.44455 -2.30831 9.80528 1.27658 0.0074665 1.21735 1.65234 1.1254 6.7442 9.0509 -15.1486 0.105207 1.01647 -1.3105e-009 8.75234e-006 -1.47132e-008 
15.4424 144.703 112.495 1.29717 2.87805 176.029 6.72933 -8.65264 12.0692 -1.15063 32.4557 -19.0479 -19.0657 -16.3382 -1.71967 0.0462048 0.000530889 0.662642 -6.96467 1.81244 -1.7765 3.77173 8.38445 -2.70222 8.58948 8.0348 -56.8738 -31.3971 -3.31213 12.3345 -79.0156 -44.7715 -37.1892 -172.95 63.5128 175.838 9.40536 8.94629 -7.44427 31.351 -0.989592 -6.7291 54.9191 -21.5205 20.9404 17.8343 71.3619 -4.12964 -2.42467 9.80553 1.20853 0.00408965 1.1585 1.62469 1.15644 6.68493 9.16582 -15.1672 0.156031 1.02417 -1.3105e-009 8.75234e-006 -1.47132e-008 
